<?xml version="1.0" encoding="UTF-8"?>
<!DOCTYPE svg PUBLIC "-//W3C//DTD SVG 1.1//EN" "http://www.w3.org/Graphics/SVG/1.1/DTD/svg11.dtd">
<!-- Creator: CorelDRAW -->
<svg xmlns="http://www.w3.org/2000/svg" xml:space="preserve" width="27.0932mm" height="27.0932mm" version="1.1" shape-rendering="geometricPrecision" text-rendering="geometricPrecision" image-rendering="optimizeQuality" fill-rule="evenodd" clip-rule="evenodd"
viewBox="0 0 2709 2709"
 xmlns:xlink="http://www.w3.org/1999/xlink"
 xmlns:xodm="http://www.corel.com/coreldraw/odm/2003">
 <g id="Capa_x0020_1">
  <metadata id="CorelCorpID_0Corel-Layer"/>
  <g id="_1376856718240">
   <path fill="#006B3E" d="M1268 2484c6,31 13,92 14,121 1,30 -2,28 -47,14 -220,-72 -306,-152 -482,-291 -55,-43 -59,-41 -87,-34 -119,31 -234,3 -349,-80 -121,-88 -225,-273 -272,-422 -49,-159 -56,-384 -34,-548 32,-230 121,-489 251,-674l95 -115c-192,635 514,732 655,1016 69,139 63,249 28,403 -23,102 -57,194 -102,267 -28,45 -24,40 -73,11 -175,-103 -308,-246 -427,-437 -84,-134 -132,-274 -169,-391 -9,-30 -10,-34 -10,-34 0,0 26,172 66,281 96,262 281,458 485,631 181,154 238,169 430,242 16,6 21,8 27,39z"/>
   <path fill="#149A7B" fill-rule="nonzero" d="M2101 455c0,542 -558,759 -787,863 -270,-422 -696,-404 -696,-863 0,-201 166,-375 377,-375 174,0 320,117 364,277 44,-160 190,-277 364,-277 209,0 378,170 378,375z"/>
   <path fill="#149A7B" d="M2709 1353c0,-345 -129,-659 -341,-898l-2 0c129,439 -188,863 -604,966 -239,57 -416,249 -416,530 0,281 246,550 550,550 539,0 813,-719 813,-1148zm-143 -182c8,111 24,254 -27,446 -51,192 -153,365 -188,408 -35,43 -83,41 -117,15 -33,-27 -35,-81 -9,-110 27,-29 79,-72 177,-240 98,-169 132,-387 142,-513 3,-43 20,-30 21,-6z"/>
  </g>
 </g>
</svg>
