<?xml version="1.0" encoding="UTF-8"?>
<!DOCTYPE svg PUBLIC "-//W3C//DTD SVG 1.1//EN" "http://www.w3.org/Graphics/SVG/1.1/DTD/svg11.dtd">
<!-- Creator: CorelDRAW -->
<svg xmlns="http://www.w3.org/2000/svg" xml:space="preserve" width="120mm" height="29.929mm" version="1.1" shape-rendering="geometricPrecision" text-rendering="geometricPrecision" image-rendering="optimizeQuality" fill-rule="evenodd" clip-rule="evenodd"
viewBox="0 0 12000 2993"
 xmlns:xlink="http://www.w3.org/1999/xlink"
 xmlns:xodm="http://www.corel.com/coreldraw/odm/2003">
 <g id="Capa_x0020_1">
  <metadata id="CorelCorpID_0Corel-Layer"/>
  <g id="_1376858947312">
   <path fill="#006B3E" fill-rule="nonzero" d="M4782 1052c0,11 -5,16 -15,16 -16,0 -40,0 -71,-1 -32,0 -55,-1 -71,-1 -9,0 -13,-7 -13,-21 0,-24 1,-59 2,-108 1,-48 2,-84 2,-108 0,-19 0,-48 -1,-87 -1,-38 -1,-67 -1,-86 0,-55 -8,-94 -24,-116 -19,-27 -55,-40 -107,-40 -24,0 -57,14 -100,41 -45,28 -68,54 -68,76l0 434c0,12 -5,18 -14,18 -15,0 -38,0 -69,-1 -31,0 -54,-1 -70,-1 -10,0 -15,-5 -15,-17 0,-38 1,-95 2,-171 1,-76 2,-133 2,-172 0,-103 -11,-197 -32,-284 -1,-4 -2,-8 -2,-9 0,-5 3,-8 9,-10 3,0 31,-5 83,-13 52,-8 79,-13 81,-13 3,0 5,4 6,12 2,30 8,60 17,91 25,-20 58,-44 99,-74 51,-31 100,-46 147,-46 91,0 152,26 185,79 25,39 37,101 37,187 0,15 0,38 -1,69 -1,31 -1,54 -1,70 0,32 1,80 1,144 1,64 1,112 1,145z"/>
   <path id="_1" fill="#006B3E" fill-rule="nonzero" d="M5762 413c0,2 -1,6 -2,13 -19,110 -29,205 -29,285 0,5 6,113 19,324l1 10c0,14 -6,21 -19,21 -13,0 -33,1 -60,5 -27,3 -47,5 -60,5 -9,0 -16,-17 -21,-50 -5,-34 -9,-50 -14,-50 -3,0 -16,9 -39,28 -28,23 -55,40 -79,53 -38,19 -76,29 -114,29 -93,0 -172,-37 -237,-112 -61,-71 -91,-154 -91,-249 0,-107 31,-195 92,-265 64,-73 148,-109 253,-109 74,0 138,26 193,77 8,10 21,24 38,42 1,1 3,2 4,2 3,0 7,-15 12,-46 5,-30 12,-46 20,-46 13,0 37,4 73,11 40,9 59,17 59,23zm-185 302c0,-59 -18,-110 -53,-152 -37,-46 -84,-69 -142,-69 -58,0 -106,23 -145,68 -37,43 -55,94 -55,153 0,58 18,109 55,152 39,45 87,67 145,67 56,0 104,-23 142,-69 36,-43 54,-93 54,-150z"/>
   <path id="_2" fill="#006B3E" fill-rule="nonzero" d="M6421 935c0,11 -1,25 -3,43 -2,22 -4,37 -4,44 0,9 -1,14 -2,16 -2,3 -6,7 -14,10 -39,19 -101,28 -186,28 -112,0 -168,-51 -168,-153 0,-41 1,-102 2,-184 1,-82 2,-144 2,-185 0,-20 -10,-30 -30,-32 -18,0 -36,0 -53,-1 -10,-2 -15,-22 -15,-59 0,-14 1,-29 3,-44 1,-12 9,-19 23,-21 12,0 24,0 35,-1 22,-1 33,-11 33,-30 0,-19 0,-49 -1,-88 -1,-39 -1,-69 -1,-89 0,-35 7,-53 20,-53 4,0 49,7 135,22 11,1 17,7 17,16 0,21 -2,53 -5,96 -3,42 -5,74 -5,95 0,14 7,21 20,21l174 0c8,0 12,3 12,9 0,6 -1,15 -3,28 -2,13 -2,22 -2,28 0,7 0,18 1,33 1,15 1,26 1,33 0,9 -7,14 -20,14 -19,0 -49,-1 -88,-4 -39,-2 -68,-4 -88,-4 -4,0 -7,14 -9,41 -1,34 -1,82 -1,144l0 108c0,41 4,70 12,87 11,25 35,38 71,38 15,0 37,-3 65,-10 29,-6 50,-10 64,-10 6,0 9,4 9,13z"/>
   <path id="_3" fill="#006B3E" fill-rule="nonzero" d="M7333 411c0,35 -1,88 -4,160 -3,71 -4,124 -4,160 0,35 1,88 3,158 2,70 3,123 3,158 0,10 -4,16 -14,19 -4,1 -53,1 -147,1 -6,0 -9,-18 -10,-54 -1,-36 -4,-54 -8,-54 -2,0 -6,2 -11,7 -80,70 -160,105 -238,105 -106,0 -177,-38 -211,-116 -21,-48 -32,-133 -32,-257 0,-112 9,-206 27,-284 4,-19 12,-28 24,-28 14,0 35,0 63,1 28,1 49,1 63,1 10,0 15,5 15,16 0,19 -3,50 -9,94 -7,47 -10,80 -11,99 -1,29 -2,61 -2,95 0,84 6,141 18,170 21,52 67,78 138,78 30,0 66,-15 108,-45 43,-31 66,-61 68,-90 2,-36 4,-163 4,-382 0,-23 10,-35 30,-35l120 0c14,0 21,8 21,25z"/>
   <path id="_4" fill="#006B3E" fill-rule="nonzero" d="M8034 388c0,53 -4,101 -11,145 -1,11 -6,17 -15,17 -10,0 -25,-1 -46,-3 -21,-2 -36,-3 -47,-3 -61,0 -100,17 -117,51 -10,21 -15,64 -15,129l0 80c0,27 1,68 3,123 2,55 3,96 3,123 0,13 -5,19 -17,19 -15,0 -37,0 -67,-1 -30,0 -53,-1 -68,-1 -11,0 -17,-6 -17,-18 0,-39 1,-98 2,-176 1,-78 2,-138 2,-177 0,-119 -11,-215 -33,-287 -1,-4 -1,-7 -1,-9 0,-6 3,-10 9,-12 18,-2 42,-5 74,-9 52,-10 75,-15 72,-15 8,0 13,14 15,43 2,29 7,43 13,43 1,0 2,-1 4,-1 20,-13 39,-25 59,-38 22,-13 44,-23 67,-29 19,-6 43,-9 73,-9 38,0 56,5 56,15z"/>
   <path id="_5" fill="#006B3E" fill-rule="nonzero" d="M8956 413c0,2 -1,6 -2,13 -19,110 -29,205 -29,285 0,5 6,113 19,324l1 10c0,14 -6,21 -19,21 -13,0 -33,1 -60,5 -27,3 -47,5 -60,5 -9,0 -16,-17 -21,-50 -5,-34 -9,-50 -14,-50 -3,0 -16,9 -39,28 -28,23 -55,40 -79,53 -38,19 -76,29 -114,29 -93,0 -172,-37 -237,-112 -61,-71 -91,-154 -91,-249 0,-107 31,-195 92,-265 64,-73 148,-109 253,-109 74,0 138,26 193,77 8,10 21,24 38,42 1,1 3,2 4,2 3,0 7,-15 12,-46 5,-30 12,-46 20,-46 13,0 37,4 73,11 40,9 59,17 59,23zm-185 302c0,-59 -18,-110 -53,-152 -37,-46 -84,-69 -142,-69 -58,0 -106,23 -145,68 -37,43 -55,94 -55,153 0,58 18,109 55,152 39,45 87,67 145,67 56,0 104,-23 142,-69 36,-43 54,-93 54,-150z"/>
   <path id="_6" fill="#006B3E" fill-rule="nonzero" d="M9395 65l-1 9c-10,179 -16,333 -16,462 0,57 1,143 3,257 2,114 3,200 3,257 0,11 -4,17 -11,17l-138 0c-9,0 -13,-5 -13,-17 0,-57 1,-143 1,-257 1,-114 1,-200 1,-257 0,-52 -2,-130 -7,-235 -5,-104 -7,-182 -7,-234 0,-10 5,-15 15,-15 9,0 22,1 39,2 17,1 30,2 39,2 9,0 22,-1 40,-2 18,-1 31,-2 39,-2 9,0 13,4 12,12z"/>
   <path id="_7" fill="#006B3E" fill-rule="nonzero" d="M10290 679c0,36 -15,59 -46,72 -21,8 -170,22 -448,43 6,42 30,78 70,108 39,28 80,43 125,43 76,0 146,-24 210,-73 8,-6 16,-13 23,-19 4,0 6,1 8,1 1,1 10,18 27,50 17,33 25,50 25,52 0,3 -4,8 -12,17 -71,75 -162,112 -273,112 -112,0 -201,-33 -267,-100 -66,-67 -100,-156 -100,-267 0,-99 32,-186 95,-259 67,-77 149,-115 246,-115 91,0 166,33 227,100 59,65 89,143 89,236zm-172 -44c0,-40 -16,-75 -47,-106 -32,-31 -67,-46 -107,-46 -44,0 -84,18 -118,53 -35,36 -52,75 -52,120 0,10 9,15 26,15 72,0 157,-7 256,-21 28,-4 42,-9 42,-14z"/>
   <path id="_8" fill="#006B3E" fill-rule="nonzero" d="M11067 930c0,2 -4,19 -11,51 -8,34 -12,55 -13,63 -2,17 -6,25 -13,25 -17,0 -39,-1 -68,-3 -32,-2 -55,-4 -67,-4 -32,-1 -78,-1 -139,-1 -47,0 -98,2 -155,6 -71,5 -102,7 -92,7 -10,0 -17,-4 -19,-13 -7,-23 -10,-50 -10,-81 0,-4 0,-10 1,-18 0,-8 1,-14 1,-18 0,-7 5,-15 16,-24 10,-9 61,-64 154,-164 46,-49 112,-124 198,-225l-317 0c-8,0 -12,-5 -12,-15 0,-14 3,-34 9,-62 6,-28 9,-48 9,-61 0,-6 7,-9 20,-9 27,0 67,1 121,3 53,2 94,3 121,3 132,0 206,1 223,2 12,1 18,6 18,15 0,73 -3,113 -9,123 -5,7 -47,54 -125,143 -51,57 -127,143 -230,257 161,-4 285,-6 374,-6 11,0 17,2 17,6z"/>
   <path id="_9" fill="#006B3E" fill-rule="nonzero" d="M11997 413c0,2 -1,6 -2,13 -19,110 -29,205 -29,285 0,5 6,113 19,324l1 10c0,14 -6,21 -19,21 -13,0 -33,1 -60,5 -27,3 -47,5 -60,5 -9,0 -16,-17 -21,-50 -5,-34 -9,-50 -14,-50 -3,0 -16,9 -39,28 -28,23 -55,40 -79,53 -38,19 -76,29 -114,29 -93,0 -172,-37 -237,-112 -61,-71 -91,-154 -91,-249 0,-107 31,-195 92,-265 64,-73 148,-109 253,-109 74,0 138,26 193,77 8,10 21,24 38,42 1,1 3,2 4,2 3,0 7,-15 12,-46 5,-30 12,-46 20,-46 13,0 37,4 73,11 40,9 59,17 59,23zm-185 302c0,-59 -18,-110 -53,-152 -37,-46 -84,-69 -142,-69 -58,0 -106,23 -145,68 -37,43 -55,94 -55,153 0,58 18,109 55,152 39,45 87,67 145,67 56,0 104,-23 142,-69 36,-43 54,-93 54,-150z"/>
   <path fill="#006B3E" fill-rule="nonzero" d="M4654 2359c0,102 -41,183 -122,245 -74,56 -164,84 -270,84 -41,0 -64,-1 -70,-3 -12,-5 -17,-22 -17,-50 0,-15 -2,-37 -6,-67 -4,-30 -6,-52 -6,-66 0,-9 6,-15 19,-17 9,-2 21,-2 38,0 21,2 31,3 31,3 129,0 194,-40 194,-119 0,-37 -28,-72 -85,-103 -92,-51 -144,-81 -158,-93 -56,-48 -85,-112 -85,-190 0,-102 39,-182 116,-239 70,-51 158,-77 265,-77 9,0 16,5 21,13 5,9 13,37 26,83 13,46 19,74 19,84 0,7 -7,12 -20,14 -44,6 -88,12 -132,17 -53,14 -79,43 -79,86 0,31 28,62 82,93 81,45 133,79 155,99 56,53 84,121 84,204z"/>
   <path id="_1_0" fill="#006B3E" fill-rule="nonzero" d="M5952 1748c0,3 -1,9 -3,19 -27,156 -41,291 -41,404 0,7 9,160 26,459l1 14c1,20 -8,30 -27,30 -19,0 -47,2 -85,7 -38,5 -66,7 -85,7 -13,0 -23,-24 -30,-71 -7,-48 -13,-71 -20,-71 -4,0 -22,13 -55,40 -40,32 -78,57 -113,74 -54,27 -108,41 -162,41 -132,0 -244,-53 -335,-159 -86,-101 -129,-219 -129,-353 0,-151 43,-277 130,-376 91,-103 210,-154 358,-154 104,0 196,36 273,109 12,14 30,34 55,59 2,2 4,3 6,3 4,0 10,-21 17,-65 8,-43 17,-65 29,-65 19,0 53,5 104,15 56,12 84,23 84,33zm-262 428c0,-84 -25,-155 -75,-216 -52,-65 -119,-97 -202,-97 -82,0 -150,32 -205,96 -52,61 -79,133 -79,217 0,82 26,154 79,215 55,63 123,95 205,95 80,0 147,-32 201,-97 51,-61 76,-131 76,-213z"/>
   <path id="_2_1" fill="#006B3E" fill-rule="nonzero" d="M7173 1720c0,82 -1,205 -2,369 -1,164 -2,287 -2,369 0,162 -35,282 -104,360 -73,82 -190,123 -350,123 -155,0 -280,-29 -376,-88 -15,-9 -23,-18 -23,-24 0,7 10,-43 31,-151 2,-12 7,-17 14,-17 4,0 8,2 13,5 103,58 205,87 309,87 68,0 124,-15 168,-45 51,-34 77,-84 77,-148 0,-14 -1,-46 -4,-96 -76,92 -172,138 -289,138 -126,0 -230,-45 -311,-136 -78,-87 -117,-195 -117,-322 0,-130 38,-240 113,-331 80,-97 184,-145 312,-145 113,0 203,43 269,130 11,14 19,21 23,21 6,0 8,-6 8,-19 0,-9 -1,-23 -2,-42 -1,-20 -2,-34 -2,-43 0,-41 4,-61 12,-61 7,0 43,6 110,19 67,13 103,20 109,23 9,4 14,12 14,27zm-245 422c0,-76 -21,-141 -63,-194 -46,-58 -106,-87 -180,-87 -74,0 -133,29 -179,88 -42,53 -63,118 -63,193 0,74 21,139 64,193 46,59 105,88 178,88 72,0 132,-29 178,-88 43,-54 65,-118 65,-193z"/>
   <path id="_3_2" fill="#006B3E" fill-rule="nonzero" d="M8100 1713c0,75 -5,144 -15,205 -2,16 -9,23 -21,23 -14,0 -36,-1 -65,-5 -29,-3 -51,-5 -66,-5 -86,0 -142,24 -165,73 -14,29 -22,90 -22,183l0 113c0,38 1,96 4,174 3,78 4,136 4,174 0,18 -8,28 -23,28 -21,0 -53,0 -95,-1 -43,-1 -75,-1 -96,-1 -15,0 -23,-8 -23,-26 0,-55 1,-139 3,-250 2,-111 2,-195 2,-251 0,-168 -15,-304 -46,-406 -1,-6 -2,-9 -2,-12 0,-8 5,-14 13,-17 25,-3 60,-7 106,-13 73,-14 107,-21 101,-21 11,0 18,20 21,61 3,41 10,61 19,61 1,0 3,-1 5,-2 28,-18 56,-36 84,-54 31,-19 62,-32 95,-41 27,-8 61,-12 103,-12 53,0 80,7 80,22z"/>
   <path id="_4_3" fill="#006B3E" fill-rule="nonzero" d="M9362 1748c0,3 -1,9 -3,19 -27,156 -41,291 -41,404 0,7 9,160 26,459l1 14c1,20 -8,30 -27,30 -19,0 -47,2 -85,7 -38,5 -66,7 -85,7 -13,0 -23,-24 -30,-71 -7,-48 -13,-71 -20,-71 -4,0 -22,13 -55,40 -40,32 -78,57 -113,74 -54,27 -108,41 -162,41 -132,0 -244,-53 -335,-159 -86,-101 -129,-219 -129,-353 0,-151 43,-277 130,-376 91,-103 210,-154 358,-154 104,0 196,36 273,109 12,14 30,34 55,59 2,2 4,3 6,3 4,0 10,-21 17,-65 8,-43 17,-65 29,-65 19,0 53,5 104,15 56,12 84,23 84,33zm-262 428c0,-84 -25,-155 -75,-216 -52,-65 -119,-97 -202,-97 -82,0 -150,32 -205,96 -52,61 -79,133 -79,217 0,82 26,154 79,215 55,63 123,95 205,95 80,0 147,-32 201,-97 51,-61 76,-131 76,-213z"/>
   <path id="_5_4" fill="#006B3E" fill-rule="nonzero" d="M10665 1248c0,88 -4,220 -12,396 -8,176 -12,307 -12,394 0,269 6,473 18,612l1 13c1,7 -9,11 -28,13 -13,1 -32,1 -56,0 -29,-2 -42,-3 -40,-3 -10,0 -26,1 -45,3 -20,2 -35,3 -45,3 -10,0 -15,-24 -17,-72 -2,-48 -5,-72 -8,-73 -4,2 -9,7 -15,13 -93,102 -201,152 -322,152 -138,0 -251,-52 -340,-158 -84,-99 -126,-218 -126,-358 0,-145 42,-268 127,-367 89,-104 204,-155 347,-155 86,0 161,25 225,76 29,26 59,51 87,77 5,-2 8,-7 8,-14l0 -332c0,-22 -1,-57 -3,-102 -2,-46 -3,-80 -3,-103 0,-16 6,-24 16,-24 25,0 63,-2 113,-6 50,-4 87,-6 111,-6 12,0 17,7 17,21zm-256 931c0,-82 -25,-154 -76,-216 -54,-66 -121,-99 -201,-99 -84,0 -153,33 -208,98 -52,61 -78,135 -78,221 0,82 27,153 81,214 56,64 124,96 205,96 82,0 150,-32 203,-97 49,-61 74,-133 74,-217z"/>
   <path id="_6_5" fill="#006B3E" fill-rule="nonzero" d="M11997 1748c0,3 -1,9 -3,19 -27,156 -41,291 -41,404 0,7 9,160 26,459l1 14c1,20 -8,30 -27,30 -19,0 -47,2 -85,7 -38,5 -66,7 -85,7 -13,0 -23,-24 -30,-71 -7,-48 -13,-71 -20,-71 -4,0 -22,13 -55,40 -40,32 -78,57 -113,74 -54,27 -108,41 -162,41 -132,0 -244,-53 -335,-159 -86,-101 -129,-219 -129,-353 0,-151 43,-277 130,-376 91,-103 210,-154 358,-154 104,0 196,36 273,109 12,14 30,34 55,59 2,2 4,3 6,3 4,0 10,-21 17,-65 8,-43 17,-65 29,-65 19,0 53,5 104,15 56,12 84,23 84,33zm-262 428c0,-84 -25,-155 -75,-216 -52,-65 -119,-97 -202,-97 -82,0 -150,32 -205,96 -52,61 -79,133 -79,217 0,82 26,154 79,215 55,63 123,95 205,95 80,0 147,-32 201,-97 51,-61 76,-131 76,-213z"/>
   <g>
    <path fill="#006B3E" d="M1486 2825c7,37 15,107 17,142 2,35 -3,33 -55,16 -258,-85 -359,-179 -565,-342 -64,-51 -69,-48 -102,-40 -140,36 -275,4 -410,-94 -143,-104 -265,-320 -319,-495 -58,-186 -66,-451 -40,-643 37,-270 142,-574 294,-792l111 -135c-225,745 604,859 769,1193 81,163 74,292 32,473 -27,120 -67,227 -120,314 -33,53 -29,47 -85,13 -205,-121 -362,-289 -502,-513 -98,-157 -155,-321 -198,-459 -11,-35 -11,-39 -11,-40 0,0 31,202 78,330 113,308 330,537 570,741 213,181 279,199 504,284 18,7 25,9 32,46z"/>
    <path fill="#149A7B" fill-rule="nonzero" d="M2459 383c2,20 4,39 4,59 0,637 -655,891 -924,1013 -317,-496 -817,-475 -817,-1013 0,-19 1,-39 4,-59l0 0c1,-6 2,-13 3,-19l0 -1 1 -7 0 0c3,-13 6,-25 10,-38l0 -1 3 -9 0 -1 1 -3 1 -2c59,-175 225,-301 420,-301 204,0 375,138 427,325 52,-187 223,-325 427,-325 224,0 409,166 439,381l1 0z"/>
    <path fill="#149A7B" d="M3178 1497c0,-405 -151,-774 -400,-1055l-2 0c151,516 -220,1013 -709,1134 -281,67 -489,293 -489,622 0,329 289,646 645,646 633,0 955,-844 955,-1348zm-168 -214c9,130 28,298 -32,523 -60,225 -180,429 -220,479 -41,51 -98,48 -137,17 -39,-31 -41,-95 -10,-129 31,-34 93,-84 208,-282 115,-198 155,-454 166,-602 4,-50 23,-35 25,-7z"/>
   </g>
  </g>
 </g>
</svg>
