<?xml version="1.0" encoding="UTF-8"?>
<!DOCTYPE svg PUBLIC "-//W3C//DTD SVG 1.1//EN" "http://www.w3.org/Graphics/SVG/1.1/DTD/svg11.dtd">
<!-- Creator: CorelDRAW -->
<svg xmlns="http://www.w3.org/2000/svg" xml:space="preserve" width="46.915mm" height="11.701mm" version="1.1" shape-rendering="geometricPrecision" text-rendering="geometricPrecision" image-rendering="optimizeQuality" fill-rule="evenodd" clip-rule="evenodd"
viewBox="0 0 4692 1170"
 xmlns:xlink="http://www.w3.org/1999/xlink"
 xmlns:xodm="http://www.corel.com/coreldraw/odm/2003">
 <g id="Capa_x0020_1">
  <metadata id="CorelCorpID_0Corel-Layer"/>
  <g id="_2812783374256">
   <path fill="#D5E162" fill-rule="nonzero" d="M1862 418c0,4 -2,6 -6,6 -6,0 -16,0 -28,0 -12,0 -22,0 -28,0 -3,0 -5,-3 -5,-8 0,-9 0,-23 1,-42 1,-19 1,-33 1,-42 0,-8 0,-19 0,-34 0,-15 0,-26 0,-34 0,-22 -3,-37 -9,-46 -8,-11 -22,-16 -42,-16 -9,0 -22,5 -39,16 -18,11 -27,21 -27,30l0 170c0,5 -2,7 -5,7 -6,0 -15,0 -27,0 -12,0 -21,0 -27,0 -4,0 -6,-2 -6,-6 0,-15 0,-37 1,-67 0,-30 1,-52 1,-67 0,-40 -4,-77 -12,-111 -1,-2 -1,-3 -1,-4 0,-2 1,-3 4,-4 1,0 12,-2 32,-5 20,-3 31,-5 32,-5 1,0 2,2 2,5 1,12 3,24 6,35 10,-8 23,-17 39,-29 20,-12 39,-18 57,-18 35,0 60,10 73,31 10,15 14,39 14,73 0,6 0,15 0,27 0,12 0,21 0,27 0,13 0,31 1,56 0,25 1,44 1,57z"/>
   <path id="_1" fill="#D5E162" fill-rule="nonzero" d="M2246 168c0,1 0,2 -1,5 -8,43 -11,80 -11,111 0,2 2,44 7,127l0 4c0,6 -2,8 -8,8 -5,0 -13,1 -24,2 -10,1 -18,2 -23,2 -4,0 -6,-7 -8,-20 -2,-13 -4,-20 -5,-20 -1,0 -6,4 -15,11 -11,9 -22,16 -31,21 -15,8 -30,11 -45,11 -37,0 -67,-15 -92,-44 -24,-28 -36,-60 -36,-97 0,-42 12,-76 36,-104 25,-28 58,-43 99,-43 29,0 54,10 75,30 3,4 8,9 15,16 0,1 1,1 2,1 1,0 3,-6 5,-18 2,-12 5,-18 8,-18 5,0 15,1 29,4 16,3 23,6 23,9zm-72 118c0,-23 -7,-43 -21,-59 -14,-18 -33,-27 -56,-27 -23,0 -41,9 -57,27 -14,17 -22,37 -22,60 0,23 7,43 22,59 15,17 34,26 57,26 22,0 41,-9 55,-27 14,-17 21,-36 21,-59z"/>
   <path id="_2" fill="#D5E162" fill-rule="nonzero" d="M2504 372c0,4 0,10 -1,17 -1,9 -1,14 -2,17 0,3 0,5 -1,6 -1,1 -3,3 -5,4 -15,7 -40,11 -73,11 -44,0 -66,-20 -66,-60 0,-16 0,-40 1,-72 1,-32 1,-56 1,-72 0,-8 -4,-12 -12,-12 -7,0 -14,0 -21,0 -4,-1 -6,-9 -6,-23 0,-5 0,-11 1,-17 1,-5 4,-7 9,-8 5,0 9,0 14,0 9,0 13,-4 13,-12 0,-8 0,-19 -1,-35 0,-15 -1,-27 -1,-35 0,-14 3,-21 8,-21 2,0 19,3 53,9 4,1 6,3 6,6 0,8 -1,21 -2,37 -1,17 -2,29 -2,37 0,6 3,8 8,8l68 0c3,0 5,1 5,3 0,2 0,6 -1,11 -1,5 -1,9 -1,11 0,3 0,7 0,13 0,6 0,10 0,13 0,4 -3,5 -8,5 -8,0 -19,0 -34,-1 -15,-1 -27,-1 -34,-1 -1,0 -3,5 -3,16 0,13 -1,32 -1,56l0 42c0,16 2,27 5,34 4,10 14,15 28,15 6,0 14,-1 26,-4 11,-3 20,-4 25,-4 2,0 3,2 3,5z"/>
   <path id="_3" fill="#D5E162" fill-rule="nonzero" d="M2860 168c0,14 -1,35 -2,62 -1,28 -2,49 -2,63 0,14 0,34 1,62 1,27 1,48 1,62 0,4 -2,6 -5,7 -2,0 -21,1 -58,1 -2,0 -4,-7 -4,-21 0,-14 -2,-21 -3,-21 -1,0 -2,1 -4,3 -31,27 -62,41 -93,41 -42,0 -69,-15 -82,-45 -8,-19 -12,-52 -12,-101 0,-44 3,-81 10,-111 2,-7 5,-11 9,-11 5,0 14,0 25,0 11,0 19,0 25,0 4,0 6,2 6,6 0,7 -1,20 -4,37 -3,18 -4,31 -4,39 -1,11 -1,24 -1,37 0,33 2,55 7,66 8,20 26,30 54,30 12,0 26,-6 42,-18 17,-12 26,-24 26,-35 1,-14 1,-64 1,-149 0,-9 4,-14 12,-14l47 0c6,0 8,3 8,10z"/>
   <path id="_4" fill="#D5E162" fill-rule="nonzero" d="M3134 159c0,21 -1,40 -4,57 -1,4 -3,6 -6,6 -4,0 -10,0 -18,-1 -8,-1 -14,-1 -18,-1 -24,0 -39,7 -46,20 -4,8 -6,25 -6,51l0 31c0,11 0,27 1,48 1,21 1,37 1,48 0,5 -2,8 -6,8 -6,0 -15,0 -26,0 -12,0 -21,0 -26,0 -4,0 -6,-2 -6,-7 0,-15 0,-38 1,-69 0,-31 1,-54 1,-69 0,-46 -4,-84 -13,-112 0,-2 -1,-3 -1,-3 0,-2 1,-4 4,-5 7,-1 17,-2 29,-3 20,-4 30,-6 28,-6 3,0 5,6 6,17 1,11 3,17 5,17 0,0 1,0 1,-1 8,-5 15,-10 23,-15 8,-5 17,-9 26,-11 7,-2 17,-3 28,-3 15,0 22,2 22,6z"/>
   <path id="_5" fill="#D5E162" fill-rule="nonzero" d="M3495 168c0,1 0,2 -1,5 -8,43 -11,80 -11,111 0,2 2,44 7,127l0 4c0,6 -2,8 -8,8 -5,0 -13,1 -24,2 -10,1 -18,2 -23,2 -4,0 -6,-7 -8,-20 -2,-13 -4,-20 -5,-20 -1,0 -6,4 -15,11 -11,9 -22,16 -31,21 -15,8 -30,11 -45,11 -37,0 -67,-15 -92,-44 -24,-28 -36,-60 -36,-97 0,-42 12,-76 36,-104 25,-28 58,-43 99,-43 29,0 54,10 75,30 3,4 8,9 15,16 0,1 1,1 2,1 1,0 3,-6 5,-18 2,-12 5,-18 8,-18 5,0 15,1 29,4 16,3 23,6 23,9zm-72 118c0,-23 -7,-43 -21,-59 -14,-18 -33,-27 -56,-27 -23,0 -41,9 -57,27 -14,17 -22,37 -22,60 0,23 7,43 22,59 15,17 34,26 57,26 22,0 41,-9 55,-27 14,-17 21,-36 21,-59z"/>
   <path id="_6" fill="#D5E162" fill-rule="nonzero" d="M3666 32l0 4c-4,70 -6,130 -6,180 0,22 0,56 1,101 1,45 1,78 1,100 0,4 -1,6 -4,6l-54 0c-3,0 -5,-2 -5,-6 0,-22 0,-56 1,-100 0,-45 1,-78 1,-101 0,-20 -1,-51 -3,-92 -2,-41 -3,-71 -3,-91 0,-4 2,-6 6,-6 3,0 8,0 15,1 7,1 12,1 15,1 3,0 9,0 16,-1 7,-1 12,-1 15,-1 3,0 5,2 5,5z"/>
   <path id="_7" fill="#D5E162" fill-rule="nonzero" d="M4016 272c0,14 -6,23 -18,28 -8,3 -67,9 -175,17 2,17 12,31 27,42 15,11 31,17 49,17 30,0 57,-10 82,-29 3,-3 6,-5 9,-7 2,0 3,0 3,1 0,0 4,7 11,19 7,13 10,19 10,20 0,1 -2,3 -5,6 -28,29 -63,44 -107,44 -44,0 -78,-13 -105,-39 -26,-26 -39,-61 -39,-104 0,-39 12,-73 37,-101 26,-30 58,-45 96,-45 35,0 65,13 89,39 23,25 35,56 35,92zm-67 -17c0,-16 -6,-30 -19,-42 -12,-12 -26,-18 -42,-18 -17,0 -33,7 -46,21 -14,14 -20,30 -20,47 0,4 3,6 10,6 28,0 61,-3 100,-8 11,-2 16,-3 16,-6z"/>
   <path id="_8" fill="#D5E162" fill-rule="nonzero" d="M4320 370c0,1 -1,8 -4,20 -3,13 -5,22 -5,25 -1,7 -3,10 -5,10 -7,0 -15,0 -27,-1 -13,-1 -21,-2 -26,-2 -13,0 -31,0 -54,0 -18,0 -38,1 -61,2 -28,2 -40,3 -36,3 -4,0 -6,-2 -8,-5 -3,-9 -4,-20 -4,-32 0,-2 0,-4 0,-7 0,-3 0,-6 0,-7 0,-3 2,-6 6,-10 4,-4 24,-25 60,-64 18,-19 44,-48 78,-88l-124 0c-3,0 -5,-2 -5,-6 0,-5 1,-13 3,-24 2,-11 3,-19 3,-24 0,-2 3,-3 8,-3 11,0 26,0 47,1 21,1 37,1 47,1 52,0 81,0 87,1 5,1 7,3 7,6 0,28 -1,44 -3,48 -2,3 -18,21 -49,56 -20,22 -50,56 -90,100 63,-2 112,-2 146,-2 4,0 6,1 6,3z"/>
   <path id="_9" fill="#D5E162" fill-rule="nonzero" d="M4683 168c0,1 0,2 -1,5 -8,43 -11,80 -11,111 0,2 2,44 7,127l0 4c0,6 -2,8 -8,8 -5,0 -13,1 -24,2 -10,1 -18,2 -23,2 -4,0 -6,-7 -8,-20 -2,-13 -4,-20 -5,-20 -1,0 -6,4 -15,11 -11,9 -22,16 -31,21 -15,8 -30,11 -45,11 -37,0 -67,-15 -92,-44 -24,-28 -36,-60 -36,-97 0,-42 12,-76 36,-104 25,-28 58,-43 99,-43 29,0 54,10 75,30 3,4 8,9 15,16 0,1 1,1 2,1 1,0 3,-6 5,-18 2,-12 5,-18 8,-18 5,0 15,1 29,4 16,3 23,6 23,9zm-72 118c0,-23 -7,-43 -21,-59 -14,-18 -33,-27 -56,-27 -23,0 -41,9 -57,27 -14,17 -22,37 -22,60 0,23 7,43 22,59 15,17 34,26 57,26 22,0 41,-9 55,-27 14,-17 21,-36 21,-59z"/>
   <path fill="#D5E162" fill-rule="nonzero" d="M1813 929c0,40 -16,72 -48,96 -29,22 -64,33 -106,33 -16,0 -25,0 -27,-1 -5,-2 -7,-9 -7,-20 0,-6 -1,-15 -2,-26 -2,-12 -2,-20 -2,-26 0,-3 2,-6 7,-7 3,-1 8,-1 15,0 8,1 12,1 12,1 51,0 76,-16 76,-47 0,-15 -11,-28 -33,-40 -36,-20 -56,-32 -62,-36 -22,-19 -33,-44 -33,-74 0,-40 15,-71 45,-94 27,-20 62,-30 104,-30 4,0 6,2 8,5 2,4 5,14 10,33 5,18 7,29 7,33 0,3 -3,5 -8,6 -17,2 -34,5 -52,7 -21,6 -31,17 -31,33 0,12 11,24 32,36 32,18 52,31 61,39 22,21 33,47 33,80z"/>
   <path id="_1_0" fill="#D5E162" fill-rule="nonzero" d="M2320 690c0,1 0,3 -1,7 -11,61 -16,114 -16,158 0,3 3,63 10,180l0 6c0,8 -3,12 -11,12 -7,0 -18,1 -33,3 -15,2 -26,3 -33,3 -5,0 -9,-9 -12,-28 -3,-19 -5,-28 -8,-28 -2,0 -9,5 -22,16 -16,13 -30,22 -44,29 -21,11 -42,16 -63,16 -52,0 -95,-21 -131,-62 -34,-39 -50,-86 -50,-138 0,-59 17,-108 51,-147 36,-40 82,-60 140,-60 41,0 76,14 107,42 5,5 12,13 21,23 1,1 2,1 2,1 2,0 4,-8 7,-25 3,-17 7,-25 11,-25 7,0 21,2 41,6 22,5 33,9 33,13zm-102 167c0,-33 -10,-61 -29,-84 -20,-25 -47,-38 -79,-38 -32,0 -59,13 -80,38 -20,24 -31,52 -31,85 0,32 10,60 31,84 21,25 48,37 80,37 31,0 57,-13 78,-38 20,-24 30,-51 30,-83z"/>
   <path id="_2_1" fill="#D5E162" fill-rule="nonzero" d="M2797 679c0,32 0,80 -1,144 -1,64 -1,112 -1,144 0,64 -14,110 -41,141 -29,32 -74,48 -137,48 -61,0 -110,-11 -147,-34 -6,-4 -9,-7 -9,-10 0,3 4,-17 12,-59 1,-5 3,-7 6,-7 1,0 3,1 5,2 40,23 80,34 121,34 27,0 48,-6 66,-18 20,-13 30,-33 30,-58 0,-6 -1,-18 -2,-38 -30,36 -67,54 -113,54 -49,0 -90,-18 -122,-53 -30,-34 -46,-76 -46,-126 0,-51 15,-94 44,-129 31,-38 72,-57 122,-57 44,0 79,17 105,51 4,6 7,8 9,8 2,0 3,-2 3,-7 0,-3 0,-9 -1,-17 0,-8 -1,-13 -1,-17 0,-16 2,-24 5,-24 3,0 17,2 43,7 26,5 40,8 43,9 4,1 6,5 6,10zm-96 165c0,-30 -8,-55 -24,-76 -18,-23 -41,-34 -70,-34 -29,0 -52,11 -70,34 -16,21 -24,46 -24,76 0,29 8,54 25,75 18,23 41,34 70,34 28,0 52,-11 70,-34 17,-21 25,-46 25,-75z"/>
   <path id="_3_2" fill="#D5E162" fill-rule="nonzero" d="M3160 677c0,29 -2,56 -6,80 -1,6 -4,9 -8,9 -6,0 -14,-1 -25,-2 -11,-1 -20,-2 -26,-2 -34,0 -55,9 -65,28 -6,11 -8,35 -8,72l0 44c0,15 1,38 2,68 1,30 2,53 2,68 0,7 -3,11 -9,11 -8,0 -21,0 -37,0 -17,0 -29,0 -37,0 -6,0 -9,-3 -9,-10 0,-22 0,-54 1,-98 1,-43 1,-76 1,-98 0,-66 -6,-119 -18,-159 -1,-2 -1,-4 -1,-5 0,-3 2,-5 5,-7 10,-1 23,-3 41,-5 29,-5 42,-8 40,-8 4,0 7,8 8,24 1,16 4,24 7,24 1,0 1,0 2,-1 11,-7 22,-14 33,-21 12,-7 24,-13 37,-16 10,-3 24,-5 40,-5 21,0 31,3 31,8z"/>
   <path id="_4_3" fill="#D5E162" fill-rule="nonzero" d="M3653 690c0,1 0,3 -1,7 -11,61 -16,114 -16,158 0,3 3,63 10,180l0 6c0,8 -3,12 -11,12 -7,0 -18,1 -33,3 -15,2 -26,3 -33,3 -5,0 -9,-9 -12,-28 -3,-19 -5,-28 -8,-28 -2,0 -9,5 -22,16 -16,13 -30,22 -44,29 -21,11 -42,16 -63,16 -52,0 -95,-21 -131,-62 -34,-39 -50,-86 -50,-138 0,-59 17,-108 51,-147 36,-40 82,-60 140,-60 41,0 76,14 107,42 5,5 12,13 21,23 1,1 2,1 2,1 2,0 4,-8 7,-25 3,-17 7,-25 11,-25 7,0 21,2 41,6 22,5 33,9 33,13zm-102 167c0,-33 -10,-61 -29,-84 -20,-25 -47,-38 -79,-38 -32,0 -59,13 -80,38 -20,24 -31,52 -31,85 0,32 10,60 31,84 21,25 48,37 80,37 31,0 57,-13 78,-38 20,-24 30,-51 30,-83z"/>
   <path id="_5_4" fill="#D5E162" fill-rule="nonzero" d="M4163 495c0,34 -2,86 -5,155 -3,69 -5,120 -5,154 0,105 2,185 7,239l0 5c0,3 -3,4 -11,5 -5,1 -12,1 -22,0 -11,-1 -17,-1 -16,-1 -4,0 -10,0 -18,1 -8,1 -14,1 -18,1 -4,0 -6,-9 -7,-28 -1,-19 -2,-28 -3,-28 -2,1 -4,3 -6,5 -36,40 -79,60 -126,60 -54,0 -98,-20 -133,-62 -33,-39 -49,-85 -49,-140 0,-57 17,-105 50,-143 35,-41 80,-61 136,-61 34,0 63,10 88,30 11,10 23,20 34,30 2,-1 3,-3 3,-6l0 -130c0,-9 0,-22 -1,-40 -1,-18 -1,-31 -1,-40 0,-6 2,-10 6,-10 10,0 25,-1 44,-2 20,-2 34,-2 44,-2 5,0 7,3 7,8zm-100 364c0,-32 -10,-60 -30,-84 -21,-26 -47,-39 -78,-39 -33,0 -60,13 -81,38 -20,24 -30,53 -30,86 0,32 11,60 32,84 22,25 48,38 80,38 32,0 58,-13 79,-38 19,-24 29,-52 29,-85z"/>
   <path id="_6_5" fill="#D5E162" fill-rule="nonzero" d="M4684 690c0,1 0,3 -1,7 -11,61 -16,114 -16,158 0,3 3,63 10,180l0 6c0,8 -3,12 -11,12 -7,0 -18,1 -33,3 -15,2 -26,3 -33,3 -5,0 -9,-9 -12,-28 -3,-19 -5,-28 -8,-28 -2,0 -9,5 -22,16 -16,13 -30,22 -44,29 -21,11 -42,16 -63,16 -52,0 -95,-21 -131,-62 -34,-39 -50,-86 -50,-138 0,-59 17,-108 51,-147 36,-40 82,-60 140,-60 41,0 76,14 107,42 5,5 12,13 21,23 1,1 2,1 2,1 2,0 4,-8 7,-25 3,-17 7,-25 11,-25 7,0 21,2 41,6 22,5 33,9 33,13zm-102 167c0,-33 -10,-61 -29,-84 -20,-25 -47,-38 -79,-38 -32,0 -59,13 -80,38 -20,24 -31,52 -31,85 0,32 10,60 31,84 21,25 48,37 80,37 31,0 57,-13 78,-38 20,-24 30,-51 30,-83z"/>
   <g>
    <path fill="#D5E162" d="M574 1111c3,14 6,42 6,56 1,14 -1,13 -22,6 -101,-33 -140,-70 -221,-134 -25,-20 -27,-19 -40,-15 -55,14 -108,2 -160,-37 -56,-41 -103,-125 -125,-194 -23,-73 -26,-176 -16,-251 15,-106 56,-224 115,-309l44 -53c-88,291 236,336 301,466 32,64 29,114 13,185 -11,47 -26,89 -47,123 -13,21 -11,18 -33,5 -80,-47 -141,-113 -196,-201 -38,-61 -61,-126 -77,-179 -4,-14 -4,-15 -4,-16 0,0 12,79 30,129 44,120 129,210 223,290 83,71 109,78 197,111 7,3 10,4 13,18z"/>
    <path fill="#D5E162" fill-rule="nonzero" d="M955 157c1,8 1,15 1,23 0,249 -256,348 -361,396 -124,-194 -319,-186 -319,-396 0,-8 1,-15 2,-23l0 0c0,-3 1,-5 1,-8l0 0 1 -3 0 0c1,-5 2,-10 4,-15l0 0 1 -3 0 0 0 -1 0 -1c23,-68 88,-118 164,-118 80,0 147,54 167,127 20,-73 87,-127 167,-127 87,0 160,65 172,149l0 0z"/>
    <path fill="#D5E162" d="M1236 592c0,-158 -59,-303 -156,-412l-1 0c59,202 -86,396 -277,444 -110,26 -191,114 -191,243 0,129 113,252 252,252 247,0 373,-330 373,-527zm-66 -84c4,51 11,117 -12,205 -23,88 -70,168 -86,187 -16,20 -38,19 -54,7 -15,-12 -16,-37 -4,-50 12,-13 36,-33 81,-110 45,-77 61,-177 65,-235 1,-20 9,-14 10,-3z"/>
   </g>
  </g>
 </g>
</svg>
