<?xml version="1.0" encoding="UTF-8"?>
<!DOCTYPE svg PUBLIC "-//W3C//DTD SVG 1.1//EN" "http://www.w3.org/Graphics/SVG/1.1/DTD/svg11.dtd">
<!-- Creator: CorelDRAW -->
<svg xmlns="http://www.w3.org/2000/svg" xml:space="preserve" width="38.318mm" height="38.318mm" version="1.1" style="shape-rendering:geometricPrecision; text-rendering:geometricPrecision; image-rendering:optimizeQuality; fill-rule:evenodd; clip-rule:evenodd"
viewBox="0 0 3831.8 3831.8"
 xmlns:xlink="http://www.w3.org/1999/xlink"
 xmlns:xodm="http://www.corel.com/coreldraw/odm/2003">
 <defs>
  <style type="text/css">
   <![CDATA[
    .str0 {stroke:#149A7B;stroke-width:15.33;stroke-miterlimit:22.9256}
    .fil0 {fill:none}
   ]]>
  </style>
 </defs>
 <g id="Capa_x0020_1">
  <metadata id="CorelCorpID_0Corel-Layer"/>
  <path class="fil0 str0" d="M0.01 383.19l421.93 -42.19c444.53,-356.62 1185.04,-384.82 1545.74,-191.65 -189.92,-36.07 -335.12,-11.14 -431.67,80.24l2295.77 -229.57m-3831.77 3831.77l2436.04 -244.34c-59.47,-79.2 -89.32,-182.22 -87.81,-310.5m199.23 422.2c279.32,189.39 569.08,107.65 821.27,-82.12m340.17 -476.38c-46.42,121.13 -110.5,234.99 -196.41,339.86l319.28 -31.9m-3831.77 0l2351.27 -235.15c12.48,-176.86 113.66,-284.25 170.84,-337.3m1266.79 -126.68c-7.9,118.14 -26.73,226.71 -56.35,325.85l99.22 -9.9m-3831.77 0l2641.8 -264.19c269.36,-104.28 609.76,-87.52 728.05,-393.03m390.84 -39.49c20.97,100.47 38.18,203.66 30.92,317.53l40.16 -4m-3831.77 0l1866.31 -185.8c-93.28,-95.2 -181,-194.13 -260.68,-298.5m310.25 352.15l125.75 125.76 150.06 -153.34m1640.08 -223.44l-88.41 8.83c-26.65,-94.16 -73.69,-200.19 -127.1,-309.92m-158.87 18.86c-2.54,114.73 -17.03,224.89 -56.83,325.34l-1145.61 114.57c121.91,-119.13 209.3,-236.1 287.9,-352.54m-2542.85 194.86l1565.82 -156.58c-77.38,-110.89 -121.38,-212.82 -144.91,-309.26m2410.86 82.66l-248.23 25.65c-58.19,-93.2 -83.69,-121.67 -149.14,-198.88 13.66,74.25 23.18,111.46 23.15,214.83l-876.9 83.51c71.67,-123.45 93.48,-231.64 93.17,-333.06m-2673.82 207.95l1412.39 -141.24c-41.92,-378.98 462.49,-537.12 629.24,-128.84 140.27,-348.68 535.76,-287.2 622.46,3.67l1167.68 -116.77m-3508.36 -356.33c-39.17,91.25 -71.52,199.59 -93.7,333.35l3602.06 -360.19m-3426.29 16.23c-17.33,46.23 -28.3,85.4 -37.46,146.44 64.19,3.06 138.36,41.97 212.27,47.1 269,18.71 518.11,-82.71 654.9,-276.89m-1189.25 504.12c-14.62,93.77 -22.38,189.28 -22.82,285.85 36.83,-17.2 143.31,-68.29 181.16,-83.5 0.41,-73.03 5.76,-146 15.8,-218.33m-220.08 -37.85l56.08 -5.61c21.42,-118.7 65.62,-227.92 105,-332.83m188.33 -79.68c58.51,-133.19 123.9,-249.27 197.89,-343.78m723.76 251.61l2560.71 -256.06m-3831.77 383.18l176.15 -17.62c-66.79,-107.9 -79.49,-211.51 -69.18,-313.31m1164.09 203.81c49.84,-81.68 70.7,-199.09 79.06,-331.9m-921.05 415.86c6.44,-44.02 136.7,-282.81 187.11,-342.46m-616.18 2.44l118.66 -11.86c24.71,-114.79 102.56,-228.71 217.88,-342.03m3495.23 -29.29c-824.85,82.48 -1649.69,164.97 -2474.53,247.45 23.08,-167.03 66.73,-266.66 119.64,-335.96m-810.21 405.02c112.92,-147.85 246.04,-269.08 399.18,-363.91 -215.78,105 -369.41,227.18 -463.97,365.62"/>
 </g>
</svg>
