<?xml version="1.0" encoding="UTF-8"?>
<!DOCTYPE svg PUBLIC "-//W3C//DTD SVG 1.1//EN" "http://www.w3.org/Graphics/SVG/1.1/DTD/svg11.dtd">
<!-- Creator: CorelDRAW -->
<svg xmlns="http://www.w3.org/2000/svg" xml:space="preserve" width="50mm" height="50mm" version="1.1" style="shape-rendering:geometricPrecision; text-rendering:geometricPrecision; image-rendering:optimizeQuality; fill-rule:evenodd; clip-rule:evenodd"
viewBox="0 0 5000 5000"
 xmlns:xlink="http://www.w3.org/1999/xlink"
 xmlns:xodm="http://www.corel.com/coreldraw/odm/2003">
 <defs>
  <style type="text/css">
   <![CDATA[
    .str0 {stroke:white;stroke-width:20;stroke-miterlimit:22.9256}
    .fil0 {fill:none}
   ]]>
  </style>
 </defs>
 <g id="Capa_x0020_1">
  <metadata id="CorelCorpID_0Corel-Layer"/>
  <path class="fil0 str0" d="M-6.13 506.09l550.57 -55.05c580.06,-465.35 1546.34,-502.14 2017.01,-250.08 -247.83,-47.07 -437.3,-14.53 -563.28,104.71l2995.7 -299.57m-5000 5000l3178.74 -318.83c-77.6,-103.35 -116.55,-237.77 -114.58,-405.16m259.98 550.92c364.48,247.13 742.58,140.47 1071.66,-107.16m443.88 -621.62c-60.58,158.06 -144.2,306.64 -256.29,443.48l416.61 -41.63m-5000 0l3068.13 -306.84c16.28,-230.78 148.31,-370.91 222.92,-440.14m1653.02 -165.3c-10.31,154.16 -34.89,295.83 -73.53,425.19l129.46 -12.91m-5000 0l3447.24 -344.74c351.48,-136.07 795.66,-114.2 950.01,-512.86m510 -51.53c27.37,131.11 49.82,265.75 40.35,414.34l52.4 -5.22m-5000 0l2435.31 -242.44c-121.72,-124.23 -236.18,-253.32 -340.15,-389.51m404.84 459.51l164.09 164.1 195.81 -200.09m2140.1 -291.56l-115.36 11.52c-34.78,-122.86 -96.15,-261.22 -165.85,-404.41m-207.31 24.61c-3.31,149.71 -22.22,293.46 -74.15,424.54l-1494.88 149.49c159.07,-155.45 273.1,-308.08 375.67,-460.01m-3318.12 254.26l2043.21 -204.32c-100.97,-144.7 -158.38,-277.7 -189.09,-403.54m3145.88 107.86l-323.91 33.47c-75.92,-121.62 -109.2,-158.76 -194.6,-259.51 17.82,96.88 30.24,145.44 30.2,280.32l-1144.24 108.97c93.52,-161.09 121.98,-302.26 121.57,-434.6m-3489.02 271.35l1843.01 -184.3c-54.71,-494.53 603.49,-700.88 821.08,-168.12 183.03,-454.99 699.1,-374.77 812.23,4.79l1523.68 -152.38m-4577.99 -464.97c-51.11,119.07 -93.32,260.45 -122.26,434.99l4700.25 -470.01m-4470.89 21.18c-22.62,60.33 -36.93,111.44 -48.88,191.09 83.75,3.99 180.54,54.76 276.98,61.46 351.01,24.41 676.08,-107.93 854.57,-361.31m-1551.83 657.82c-19.08,122.35 -29.21,246.98 -29.78,373 48.06,-22.45 187,-89.11 236.39,-108.96 0.54,-95.3 7.52,-190.51 20.62,-284.89m-287.18 -49.4l73.18 -7.32c27.95,-154.88 85.63,-297.41 137.01,-434.3m245.75 -103.97c76.35,-173.8 161.67,-325.27 258.23,-448.6m944.42 328.33l3341.41 -334.13m-5000 500l229.86 -22.99c-87.16,-140.8 -103.73,-276 -90.28,-408.83m1519.01 265.95c65.03,-106.59 92.25,-259.79 103.16,-433.09m-1201.86 542.65c8.4,-57.44 178.37,-369.04 244.16,-446.88m-804.05 3.19l154.84 -15.48c32.25,-149.78 133.83,-298.43 284.31,-446.3m4560.85 -38.23c-1076.32,107.63 -2152.64,215.27 -3228.96,322.9 30.12,-217.96 87.08,-347.96 156.11,-438.39m-1057.22 528.5c147.35,-192.93 321.05,-351.11 520.88,-474.86 -281.57,137.02 -482.03,296.45 -605.42,477.1"/>
 </g>
</svg>
